<!-- Generated by IcoMoon.io -->
<svg version="1.1" xmlns="http://www.w3.org/2000/svg" width="1024" height="1024" viewBox="0 0 1024 1024">
<title></title>
<g id="icomoon-ignore">
</g>
<path fill="#000" d="M87.929 464.644c23.587-213.375 204.419-379.311 424.063-379.311 95.424 0 172.386 37.758 238.127 86.711 36.117 26.896 70.575 58.662 103.211 90.089v-134.134c0-23.564 19.102-42.667 42.667-42.667s42.667 19.102 42.667 42.667v234.667c0 6.413-1.417 12.495-3.951 17.952-1.229 2.652-2.748 5.206-4.557 7.616-1.399 1.87-2.953 3.622-4.638 5.236-3.618 3.473-7.71 6.189-12.066 8.14-5.329 2.392-11.238 3.722-17.455 3.722h-234.667c-23.565 0-42.667-19.103-42.667-42.667s19.102-42.667 42.667-42.667h129.037c-29.709-28.596-59.187-55.664-91.217-79.514-56.849-42.335-116.241-69.82-187.157-69.82-175.663 0-320.385 132.735-339.246 303.356-2.589 23.42-23.675 40.307-47.096 37.717-23.421-2.586-40.309-23.671-37.72-47.095z"></path>
<path fill="#000" d="M938.398 559.356c-23.586 213.376-204.416 379.311-424.064 379.311-95.423 0-172.383-37.76-238.122-86.711-36.118-26.897-70.577-58.662-103.212-90.091v134.135c0 23.565-19.103 42.667-42.667 42.667s-42.667-19.102-42.667-42.667v-234.667c0-6.413 1.415-12.497 3.949-17.95 1.23-2.654 2.749-5.21 4.557-7.616 1.402-1.873 2.954-3.622 4.639-5.239 3.618-3.473 7.709-6.187 12.067-8.141 5.328-2.389 11.236-3.721 17.455-3.721h234.667c23.564 0 42.667 19.102 42.667 42.667s-19.103 42.667-42.667 42.667h-129.037c29.706 28.595 59.186 55.663 91.214 79.514 56.852 42.334 116.244 69.82 187.156 69.82 175.667 0 320.388-132.736 339.247-303.356 2.59-23.42 23.676-40.307 47.1-37.717 23.42 2.586 40.307 23.671 37.717 47.095z"></path>
</svg>
