<!-- Generated by IcoMoon.io -->
<svg version="1.1" xmlns="http://www.w3.org/2000/svg" width="1065" height="1024" viewBox="0 0 1065 1024">
<title></title>
<g id="icomoon-ignore">
</g>
<path fill="#000" d="M655.36 647.168c-8.192-8.192-16.384-12.288-28.672-12.288h-204.8c-8.192 0-20.48 4.096-28.672 12.288s-12.288 16.384-12.288 28.672 4.096 20.48 12.288 28.672c8.192 8.192 16.384 12.288 28.672 12.288h204.8c8.192 0 20.48-4.096 28.672-12.288s12.288-16.384 12.288-28.672-4.096-20.48-12.288-28.672zM757.76 491.52c-8.192-8.192-16.384-12.288-28.672-12.288h-409.6c-8.192 0-20.48 4.096-28.672 12.288-4.096 8.192-4.096 16.384-4.096 28.672s4.096 20.48 12.288 28.672c8.192 8.192 16.384 12.288 28.672 12.288h409.6c8.192 0 20.48-4.096 28.672-12.288s12.288-16.384 12.288-28.672-12.288-20.48-20.48-28.672z"></path>
<path fill="#000" d="M757.76 491.52c8.192 8.192 12.288 16.384 12.288 28.672s-4.096 20.48-12.288 28.672c-8.192 8.192-16.384 12.288-28.672 12.288h-409.6c-8.192 0-20.48-4.096-28.672-12.288-4.096-8.192-4.096-20.48-4.096-28.672s0-20.48 8.192-28.672c8.192-8.192 16.384-12.288 28.672-12.288h409.6c8.192 4.096 20.48 4.096 24.576 12.288z"></path>
<path fill="#000" d="M999.424 294.912c-32.768-40.96-77.824-57.344-131.072-65.536-16.384-4.096-36.864-4.096-61.44-4.096l-90.112-184.32c-4.096-8.192-12.288-16.384-20.48-20.48s-20.48-4.096-28.672 0v0c-8.192 4.096-16.384 12.288-20.48 20.48s-4.096 20.48 0 28.672l73.728 147.456h-385.024l73.728-139.264c4.096-8.192 4.096-20.48 4.096-28.672-8.192-12.288-12.288-20.48-24.576-24.576-8.192-4.096-20.48-4.096-28.672 0-8.192 0-16.384 8.192-20.48 16.384l-94.208 184.32c-20.48 0-40.96 4.096-61.44 4.096-53.248 12.288-94.208 28.672-126.976 65.536-32.768 40.96-40.96 86.016-36.864 139.264s16.384 118.784 36.864 204.8l24.576 110.592c12.288 57.344 20.48 102.4 32.768 135.168 12.288 36.864 28.672 69.632 57.344 90.112 28.672 24.576 61.44 32.768 102.4 36.864 36.864 4.096 81.92 4.096 143.36 4.096h225.28c57.344 0 102.4 0 143.36-4.096s73.728-16.384 102.4-36.864 45.056-53.248 57.344-90.112c12.288-36.864 20.48-81.92 32.768-135.168l24.576-106.496c16.384-81.92 32.768-151.552 36.864-204.8-4.096-57.344-8.192-102.4-40.96-143.36zM958.464 430.080c-4.096 45.056-16.384 106.496-32.768 196.608l-24.576 102.4c-12.288 57.344-20.48 98.304-32.768 131.072-8.192 28.672-20.48 45.056-32.768 57.344s-32.768 16.384-61.44 20.48c-32.768 4.096-77.824 4.096-135.168 4.096h-221.184c-61.44 0-102.4 0-135.168-4.096s-49.152-12.288-61.44-20.48c-12.288-12.288-24.576-28.672-32.768-57.344-8.192-32.768-20.48-73.728-32.768-131.072l-20.48-102.4c-20.48-86.016-32.768-147.456-32.768-196.608-8.192-45.056 0-69.632 12.288-86.016s36.864-28.672 81.92-36.864h8.192l-20.48 40.96c0 4.096 0 12.288 0 16.384s0 8.192 0 16.384c0 4.096 4.096 8.192 8.192 12.288s4.096 4.096 12.288 8.192c4.096 4.096 8.192 4.096 16.384 4.096 4.096 0 8.192 0 16.384 0 4.096 0 8.192-4.096 12.288-8.192s8.192-8.192 8.192-12.288l40.96-81.92c28.672 0 61.44 0 98.304 0h266.24c36.864 0 69.632 0 102.4 0l40.96 81.92c4.096 8.192 12.288 16.384 20.48 20.48s20.48 4.096 28.672 0c8.192-4.096 16.384-12.288 20.48-20.48s4.096-20.48-4.096-28.672l-20.48-40.96h8.192c45.056 8.192 65.536 20.48 81.92 36.864 12.288 8.192 20.48 32.768 16.384 77.824z"></path>
<path fill="#000" d="M655.36 647.168c8.192 8.192 12.288 16.384 12.288 28.672s-4.096 20.48-12.288 28.672c-8.192 8.192-16.384 12.288-28.672 12.288h-204.8c-8.192 0-20.48-4.096-28.672-12.288s-12.288-16.384-12.288-28.672 4.096-20.48 12.288-28.672c8.192-8.192 16.384-12.288 28.672-12.288h204.8c12.288 0 24.576 4.096 28.672 12.288z"></path>
<path fill="#000" d="M770.048 520.192c0 8.192-4.096 20.48-12.288 28.672s-16.384 12.288-28.672 12.288h-409.6c-8.192 0-20.48-4.096-28.672-12.288-4.096-8.192-4.096-20.48-4.096-28.672s0-20.48 8.192-28.672c8.192-8.192 16.384-12.288 28.672-12.288h409.6c8.192 0 20.48 4.096 28.672 12.288 4.096 8.192 8.192 16.384 8.192 28.672z"></path>
</svg>
