<!-- Generated by IcoMoon.io -->
<svg version="1.1" xmlns="http://www.w3.org/2000/svg" width="1024" height="1024" viewBox="0 0 1024 1024">
<title></title>
<g id="icomoon-ignore">
</g>
<path d="M277.333 1024c-46.933 0-98.133-21.333-132.267-59.733s-51.2-85.333-46.933-132.267l51.2-558.933c4.267-46.933 38.4-76.8 85.333-76.8h72.533c8.533-110.933 93.867-196.267 204.8-196.267s200.533 85.333 209.067 196.267h72.533c42.667 0 76.8 34.133 85.333 76.8l42.667 558.933c4.267 51.2-12.8 102.4-46.933 136.533-29.867 34.133-81.067 59.733-128 59.733h-469.333zM196.267 836.267c-4.267 25.6 4.267 51.2 21.333 68.267 21.333 21.333 42.667 29.867 64 29.867h465.067c25.6 0 46.933-8.533 64-29.867s25.6-42.667 21.333-64l-34.133-554.667h-68.267v55.467c0 29.867-25.6 46.933-46.933 46.933-29.867 0-46.933-25.6-46.933-46.933v-55.467h-234.667v55.467c0 29.867-25.6 46.933-46.933 46.933-29.867 0-46.933-25.6-46.933-46.933v-55.467h-68.267l-42.667 550.4zM635.733 196.267c-8.533-59.733-55.467-106.667-119.467-106.667s-110.933 42.667-119.467 106.667h238.933z"></path>
</svg>
