<!-- Generated by IcoMoon.io -->
<svg version="1.1" xmlns="http://www.w3.org/2000/svg" width="1024" height="1024" viewBox="0 0 1024 1024">
<title></title>
<g id="icomoon-ignore">
</g>
<path d="M870.4 149.333c-98.133-98.133-226.133-149.333-358.4-149.333-136.533 0-264.533 55.467-362.667 149.333-93.867 93.867-149.333 221.867-149.333 362.667s55.467 268.8 149.333 362.667c98.133 93.867 226.133 149.333 362.667 149.333 132.267 0 260.267-51.2 362.667-149.333 98.133-98.133 149.333-226.133 149.333-362.667s-55.467-264.533-153.6-362.667zM802.133 810.667c-34.133 34.133-76.8 64-132.267 93.867-51.2 21.333-106.667 34.133-157.867 34.133-106.667 0-213.333-42.667-294.4-119.467-81.067-81.067-123.733-187.733-123.733-294.4 0-115.2 42.667-221.867 123.733-302.933 76.8-81.067 179.2-123.733 294.4-123.733 106.667 0 213.333 42.667 294.4 119.467 81.067 81.067 123.733 187.733 123.733 294.4 0 51.2-8.533 102.4-29.867 157.867-29.867 55.467-59.733 98.133-98.133 140.8z"></path>
<path d="M541.867 204.8h-102.4v345.6l315.733 170.667 46.933-85.333-260.267-145.067z"></path>
</svg>
