<!-- Generated by IcoMoon.io -->
<svg version="1.1" xmlns="http://www.w3.org/2000/svg" width="1024" height="1024" viewBox="0 0 1024 1024">
<title></title>
<g id="icomoon-ignore">
</g>
<path fill="#000" d="M1005.382 251.345c-4.655-65.164-27.927-121.018-69.818-162.909s-97.745-65.164-162.909-69.818c-65.164-9.309-153.6-9.309-260.655-9.309s-195.491 0-260.655 9.309c-65.164 4.655-121.018 27.927-162.909 69.818v0c-41.891 41.891-65.164 97.745-69.818 162.909-9.309 65.164-9.309 153.6-9.309 260.655s0 195.491 9.309 260.655c4.655 65.164 27.927 121.018 69.818 162.909s97.745 65.164 162.909 69.818c65.164 9.309 153.6 9.309 260.655 9.309s195.491 0 260.655-9.309c69.818-9.309 121.018-27.927 162.909-69.818s60.509-97.745 69.818-162.909c9.309-65.164 9.309-153.6 9.309-260.655s0-195.491-9.309-260.655zM930.909 763.345c-9.309 60.509-23.273 93.091-46.545 121.018-27.927 23.273-60.509 41.891-121.018 46.545-60.509 9.309-139.636 9.309-251.345 9.309s-190.836 0-251.345-9.309c-60.509-9.309-93.091-23.273-121.018-46.545-23.273-27.927-41.891-60.509-46.545-121.018-9.309-60.509-9.309-139.636-9.309-251.345s0-190.836 9.309-251.345c9.309-60.509 23.273-93.091 46.545-121.018 27.927-23.273 60.509-41.891 121.018-46.545 60.509-9.309 139.636-9.309 251.345-9.309s190.836 0 251.345 9.309c60.509 9.309 93.091 23.273 121.018 46.545 23.273 27.927 41.891 60.509 46.545 121.018 9.309 60.509 9.309 139.636 9.309 251.345s0 190.836-9.309 251.345z"></path>
<path fill="#000" d="M344.436 493.382c-13.964-13.964-13.964-41.891 0-55.855s41.891-13.964 55.855 0l74.473 74.473v-232.727c0-23.273 18.618-37.236 37.236-37.236s37.236 18.618 37.236 37.236v232.727l74.473-74.473c13.964-13.964 41.891-13.964 55.855 0s13.964 41.891 0 55.855l-139.636 139.636c-13.964 13.964-41.891 13.964-55.855 0l-139.636-139.636z"></path>
<path fill="#000" d="M735.418 744.727c0 23.273-18.618 37.236-37.236 37.236h-372.364c-23.273 0-37.236-18.618-37.236-37.236s18.618-37.236 37.236-37.236h372.364c23.273 0 37.236 13.964 37.236 37.236z"></path>
</svg>
