<!-- Generated by IcoMoon.io -->
<svg version="1.1" xmlns="http://www.w3.org/2000/svg" width="819" height="1024" viewBox="0 0 819 1024">
<title></title>
<g id="icomoon-ignore">
</g>
<path fill="#000" d="M527.36 10.24l230.4 230.4c5.12 5.12 10.24 15.36 10.24 25.6s0 20.48-5.12 25.6l-235.52 235.52c-5.12 5.12-15.36 10.24-25.6 10.24s-20.48-5.12-25.6-10.24c-10.24-5.12-15.36-15.36-15.36-25.6s0-20.48 5.12-25.6l168.96-168.96h-599.040c-5.12 0-15.36-5.12-20.48-10.24-10.24-5.12-15.36-15.36-15.36-25.6v-5.12c0-10.24 5.12-20.48 10.24-25.6s15.36-10.24 25.6-15.36h604.16l-168.96-158.72c-5.12-5.12-10.24-15.36-10.24-25.6s0-20.48 5.12-25.6l5.12-5.12c10.24-5.12 15.36-10.24 25.6-10.24s20.48 0 30.72 10.24v0 0z"></path>
<path fill="#000" d="M768 747.52v5.12c0 10.24-5.12 20.48-10.24 25.6s-15.36 10.24-25.6 15.36h-604.16l163.84 163.84c10.24 5.12 15.36 15.36 15.36 25.6s0 20.48-5.12 25.6l-5.12 5.12c-5.12 5.12-15.36 10.24-25.6 10.24s-20.48 0-25.6-5.12l-235.52-235.52c-5.12-5.12-10.24-15.36-10.24-25.6s0-20.48 5.12-25.6l235.52-235.52c10.24-5.12 15.36-10.24 25.6-10.24s20.48 5.12 25.6 10.24c10.24 5.12 15.36 15.36 15.36 25.6s0 20.48-5.12 25.6l-168.96 168.96h599.040c10.24 0 20.48 5.12 25.6 10.24s10.24 15.36 10.24 20.48z"></path>
</svg>
