<!-- Generated by IcoMoon.io -->
<svg version="1.1" xmlns="http://www.w3.org/2000/svg" width="1024" height="1024" viewBox="0 0 1024 1024">
<title></title>
<g id="icomoon-ignore">
</g>
<path d="M1024 276.925c0 9.498-4.763 18.996-9.525 23.745s-14.288 9.498-23.814 9.498h-952.558c-9.526 0-19.051-4.749-23.814-9.498s-14.288-18.996-14.288-23.745c0-9.498 4.763-18.996 9.526-23.745s19.051-14.247 28.577-14.247h952.558c9.525 0 19.051 4.749 23.814 9.498 4.763 9.498 9.525 18.996 9.525 28.494zM881.116 514.373c0 9.498-4.763 18.996-9.525 23.745s-14.288 9.498-23.814 9.498h-666.79c-9.526 0-19.051-4.749-23.814-9.498-9.526-9.498-14.288-18.996-14.288-23.745 0-4.747 4.763-18.994 9.525-23.743 9.526-9.498 19.051-14.247 28.577-14.247h666.79c9.525 0 19.051 4.749 23.814 9.498 4.763 9.498 9.525 18.996 9.525 28.492zM738.233 751.823c0 9.498-4.763 18.996-9.525 23.745s-14.29 9.498-23.816 9.498h-381.021c-9.525 0-19.053-4.749-23.816-9.498-9.525-9.498-14.288-18.996-14.288-23.745s4.763-18.996 9.525-23.743c9.525-9.498 19.053-14.247 28.579-14.247h381.021c9.525 0 19.053 4.749 23.816 9.498 4.763 9.496 9.525 18.994 9.525 28.492z"></path>
</svg>
