<!-- Generated by IcoMoon.io -->
<svg version="1.1" xmlns="http://www.w3.org/2000/svg" width="1024" height="1024" viewBox="0 0 1024 1024">
<title></title>
<g id="icomoon-ignore">
</g>
<path fill="#000" d="M942.080 527.36c-5.12-40.96-15.36-76.8-40.96-102.4s-56.32-40.96-92.16-46.080c-10.24 0-15.36 0-25.6 0v-61.44c0-81.92-30.72-158.72-81.92-215.040s-117.76-92.16-189.44-92.16-143.36 35.84-194.56 92.16-76.8 133.12-76.8 215.040v61.44c-10.24 0-15.36 0-25.6 0-40.96 5.12-71.68 20.48-92.16 46.080-25.6 25.6-35.84 61.44-40.96 102.4-5.12 35.84-5.12 87.040-5.12 148.48v5.12c0 61.44 0 112.64 5.12 153.6s15.36 76.8 40.96 102.4c25.6 25.6 56.32 40.96 92.16 46.080s81.92 5.12 133.12 5.12h327.68c56.32 0 97.28 0 133.12-5.12s66.56-15.36 92.16-46.080c25.6-25.6 35.84-61.44 40.96-102.4s5.12-87.040 5.12-153.6v-5.12c0-61.44 0-112.64-5.12-148.48zM296.96 317.44c0-61.44 20.48-122.88 61.44-168.96s92.16-66.56 148.48-66.56 112.64 25.6 148.48 66.56c40.96 46.080 61.44 102.4 61.44 168.96v56.32h-419.84v-56.32zM880.64 824.32c-5.12 30.72-10.24 51.2-20.48 61.44s-25.6 20.48-56.32 25.6c-30.72 5.12-71.68 5.12-128 5.12h-327.68c-56.32 0-97.28 0-128-5.12s-46.080-10.24-56.32-25.6c-10.24-10.24-20.48-30.72-20.48-61.44-5.12-35.84-5.12-76.8-5.12-143.36s0-112.64 5.12-143.36c5.12-30.72 10.24-51.2 20.48-61.44 10.24-15.36 25.6-25.6 56.32-30.72s71.68-5.12 128-5.12h322.56c56.32 0 97.28 0 128 5.12s46.080 10.24 56.32 25.6c10.24 10.24 20.48 30.72 20.48 61.44 5.12 35.84 5.12 81.92 5.12 143.36 5.12 66.56 5.12 112.64 0 148.48z"></path>
</svg>
