<!-- Generated by IcoMoon.io -->
<svg version="1.1" xmlns="http://www.w3.org/2000/svg" width="811" height="1024" viewBox="0 0 811 1024">
<title></title>
<g id="icomoon-ignore">
</g>
<path fill="#000" d="M686.933 153.6c-76.8-72.533-174.933-115.2-281.6-115.2s-204.8 42.667-281.6 115.2c-76.8 76.8-115.2 174.933-115.2 281.6 0 362.667 366.933 567.467 379.733 576 4.267 4.267 12.8 4.267 17.067 4.267s12.8 0 17.067-4.267c17.067-8.533 379.733-213.333 379.733-576 0-102.4-38.4-204.8-115.2-281.6zM405.333 938.667c-68.267-42.667-328.533-226.133-328.533-503.467 0-85.333 34.133-170.667 93.867-230.4s145.067-93.867 230.4-93.867 170.667 34.133 230.4 93.867c59.733 59.733 93.867 145.067 93.867 230.4 8.533 281.6-251.733 460.8-320 503.467z"></path>
<path fill="#000" d="M533.333 307.2c-34.133-34.133-81.067-51.2-128-51.2s-93.867 17.067-128 51.2c-34.133 34.133-51.2 81.067-51.2 128s17.067 93.867 51.2 128c34.133 34.133 81.067 51.2 128 51.2s93.867-21.333 128-51.2c34.133-34.133 51.2-81.067 51.2-128s-17.067-93.867-51.2-128zM482.133 512c-42.667 42.667-110.933 42.667-153.6 0-21.333-17.067-29.867-46.933-29.867-76.8s12.8-55.467 34.133-76.8c17.067-17.067 42.667-29.867 72.533-29.867s55.467 12.8 76.8 34.133c21.333 21.333 34.133 46.933 34.133 76.8s-12.8 55.467-34.133 72.533z"></path>
</svg>
