<!-- Generated by IcoMoon.io -->
<svg version="1.1" xmlns="http://www.w3.org/2000/svg" width="791" height="1024" viewBox="0 0 791 1024">
<title></title>
<g id="icomoon-ignore">
</g>
<path fill="#000" d="M754.036 209.455l-167.564-167.564c-27.927-27.927-60.509-41.891-97.745-41.891h-372.364c-65.164 0-116.364 51.2-116.364 116.364v749.382c0 60.509 51.2 111.709 116.364 111.709h563.2c65.164 0 116.364-51.2 116.364-116.364v-558.545c-4.655-37.236-18.618-69.818-41.891-93.091zM749.382 865.745c0 41.891-32.582 74.473-74.473 74.473h-558.545c-41.891 0-74.473-32.582-74.473-74.473v-749.382c0-41.891 32.582-74.473 74.473-74.473h372.364c23.273 0 46.545 9.309 65.164 27.927l167.564 167.564c18.618 18.618 27.927 41.891 27.927 65.164v563.2z"></path>
<path fill="#000" d="M256 609.745h-93.091c-4.655 0-9.309 0-13.964 4.655s-9.309 9.309-9.309 13.964v93.091c0 4.655 0 9.309 4.655 13.964 4.655 9.309 9.309 9.309 18.618 9.309h93.091c4.655 0 9.309 0 13.964-4.655s4.655-9.309 4.655-13.964v-93.091c0-4.655 0-9.309-4.655-13.964-4.655-9.309-9.309-9.309-13.964-9.309zM232.727 702.836h-51.2v-51.2h51.2v51.2z"></path>
<path fill="#000" d="M256 418.909h-93.091c-4.655 0-9.309 0-13.964 4.655-4.655 9.309-9.309 13.964-9.309 18.618v93.091c0 4.655 0 9.309 4.655 13.964s9.309 9.309 18.618 9.309h93.091c4.655 0 9.309 0 13.964-4.655s4.655-9.309 4.655-13.964v-93.091c0-4.655 0-9.309-4.655-13.964-4.655-9.309-9.309-13.964-13.964-13.964zM232.727 516.655h-51.2v-51.2h51.2v51.2z"></path>
<path fill="#000" d="M256 232.727h-93.091c-4.655 0-9.309 0-13.964 4.655s-9.309 13.964-9.309 18.618v93.091c0 4.655 0 9.309 4.655 13.964s9.309 9.309 18.618 9.309h93.091c4.655 0 9.309 0 13.964-4.655s4.655-9.309 4.655-13.964v-93.091c0-4.655 0-9.309-4.655-13.964-4.655-9.309-9.309-13.964-13.964-13.964zM232.727 325.818h-51.2v-51.2h51.2v51.2z"></path>
<path fill="#000" d="M642.327 660.945c0 0-4.655-4.655-4.655-4.655s-4.655 0-9.309 0h-279.273c-4.655 0-9.309 0-13.964 4.655s-9.309 9.309-9.309 13.964 4.655 9.309 4.655 13.964 13.964 9.309 18.618 9.309h279.273c4.655 0 4.655 0 9.309 0s4.655 0 4.655-4.655c0 0 4.655-4.655 4.655-4.655 0-4.655 0-4.655 0-9.309s0-4.655 0-9.309 0-4.655-4.655-9.309z"></path>
<path fill="#000" d="M642.327 474.764c0 0-4.655-4.655-4.655-4.655s-4.655 0-9.309 0h-279.273c-4.655 0-9.309 0-13.964 4.655s-9.309 9.309-9.309 13.964 4.655 9.309 4.655 13.964 13.964 9.309 18.618 9.309h279.273c4.655 0 4.655 0 9.309 0s4.655-4.655 4.655-4.655c0 0 4.655-4.655 4.655-4.655 0-4.655 0-4.655 0-9.309s0-4.655 0-9.309 0-9.309-4.655-9.309z"></path>
<path fill="#000" d="M642.327 288.582c0 0-4.655-4.655-4.655-4.655s-4.655 0-9.309 0h-279.273c-4.655 0-9.309 0-13.964 4.655-4.655 0-9.309 9.309-9.309 13.964s4.655 9.309 4.655 13.964c4.655 4.655 9.309 4.655 13.964 4.655h279.273c4.655 0 4.655 0 9.309 0s4.655-4.655 4.655-4.655c0 0 4.655-4.655 4.655-9.309 0 0 0-4.655 0-9.309s0-4.655 0-9.309c4.655 4.655 4.655 0 0 0z"></path>
</svg>
