<!-- Generated by IcoMoon.io -->
<svg version="1.1" xmlns="http://www.w3.org/2000/svg" width="1024" height="1024" viewBox="0 0 1024 1024">
<title></title>
<g id="icomoon-ignore">
</g>
<path fill="#000" d="M629.76 394.24c-25.6-20.48-51.2-40.96-87.040-46.080-30.72-5.12-61.44 0-92.16 10.24-30.72 15.36-56.32 35.84-76.8 61.44-15.36 25.6-25.6 61.44-25.6 92.16 0 40.96 15.36 87.040 46.080 117.76s76.8 46.080 117.76 46.080c30.72 0 66.56-10.24 92.16-25.6 25.6-20.48 46.080-46.080 61.44-76.8 10.24-30.72 15.36-61.44 10.24-97.28-10.24-25.6-25.6-56.32-46.080-81.92zM624.64 532.48c-5.12 20.48-15.36 40.96-30.72 56.32s-35.84 25.6-56.32 30.72c-25.6 5.12-46.080 5.12-66.56-5.12s-40.96-20.48-51.2-40.96c-15.36-15.36-20.48-40.96-20.48-61.44 0-30.72 10.24-56.32 30.72-81.92 25.6-20.48 51.2-30.72 81.92-30.72 20.48 0 46.080 5.12 61.44 20.48 20.48 10.24 35.84 30.72 40.96 51.2 10.24 20.48 10.24 40.96 10.24 61.44z"></path>
<path fill="#000" d="M1013.76 215.040c-5.12-5.12-10.24-5.12-20.48-5.12h-972.8c-5.12 0-15.36 0-20.48 5.12 0 5.12 0 10.24 0 20.48v552.96c0 5.12 0 15.36 10.24 20.48 5.12 5.12 10.24 5.12 20.48 5.12h972.8c5.12 0 15.36 0 20.48-5.12s10.24-10.24 10.24-20.48v-552.96c-10.24-10.24-10.24-15.36-20.48-20.48zM51.2 261.12h112.64c-10.24 25.6-25.6 51.2-46.080 71.68-15.36 15.36-40.96 30.72-66.56 40.96v-112.64zM51.2 762.88v-112.64c25.6 10.24 51.2 25.6 71.68 46.080s35.84 46.080 46.080 71.68h-117.76zM972.8 762.88h-112.64c10.24-25.6 25.6-51.2 40.96-71.68 20.48-15.36 46.080-30.72 71.68-40.96v112.64zM972.8 593.92c-40.96 10.24-76.8 30.72-107.52 61.44s-51.2 66.56-61.44 107.52h-583.68c-10.24-40.96-30.72-76.8-61.44-107.52s-66.56-51.2-107.52-61.44v-163.84c40.96-10.24 76.8-30.72 107.52-61.44s51.2-66.56 61.44-107.52h583.68c10.24 40.96 30.72 76.8 61.44 107.52s66.56 51.2 107.52 61.44v163.84zM972.8 373.76c-25.6-10.24-51.2-25.6-71.68-46.080s-35.84-46.080-40.96-71.68h112.64v117.76z"></path>
</svg>
