<!-- Generated by IcoMoon.io -->
<svg version="1.1" xmlns="http://www.w3.org/2000/svg" width="1024" height="1024" viewBox="0 0 1024 1024">
<title></title>
<g id="icomoon-ignore">
</g>
<path d="M512 1024c-115.2 0-226.133-38.4-311.467-106.667-89.6-68.267-153.6-166.4-183.467-273.067-25.6-106.667-21.333-226.133 21.333-328.533 42.667-106.667 119.467-192 217.6-247.467 8.533-4.267 12.8-4.267 21.333-4.267 17.067 0 34.133 8.533 38.4 21.333s8.533 25.6 4.267 38.4c-4.267 8.533-8.533 17.067-17.067 21.333-85.333 51.2-149.333 123.733-183.467 204.8-34.133 85.333-42.667 183.467-17.067 268.8 21.333 89.6 76.8 170.667 149.333 221.867 72.533 59.733 162.133 89.6 260.267 89.6 93.867 0 179.2-29.867 260.267-85.333 72.533-55.467 123.733-136.533 153.6-221.867 25.6-93.867 17.067-187.733-17.067-268.8-34.133-85.333-98.133-157.867-179.2-204.8-21.333-12.8-29.867-38.4-21.333-64 8.533-12.8 21.333-25.6 38.4-25.6 8.533 0 17.067 4.267 25.6 8.533 98.133 55.467 174.933 145.067 217.6 243.2 42.667 106.667 51.2 217.6 21.333 328.533-25.6 106.667-93.867 204.8-183.467 273.067-93.867 72.533-209.067 110.933-315.733 110.933z"></path>
<path d="M512 448c-25.6 0-46.933-21.333-46.933-46.933v-354.133c0-25.6 21.333-46.933 46.933-46.933s42.667 21.333 42.667 46.933v358.4c-4.267 25.6-21.333 42.667-42.667 42.667z"></path>
</svg>
