<!-- Generated by IcoMoon.io -->
<svg version="1.1" xmlns="http://www.w3.org/2000/svg" width="1024" height="1024" viewBox="0 0 1024 1024">
<title></title>
<g id="icomoon-ignore">
</g>
<path fill="#000" d="M1005.382 949.527l-200.145-200.145c27.927-37.236 55.855-74.473 69.818-116.364 23.273-55.855 32.582-111.709 32.582-172.218s-9.309-116.364-32.582-172.218-51.2-107.055-93.091-148.945c-41.891-41.891-93.091-74.473-148.945-97.745-111.709-46.545-237.382-46.545-344.436 0-55.855 23.273-107.055 55.855-148.945 97.745-83.782 83.782-130.327 200.145-130.327 321.164s46.545 232.727 130.327 321.164c83.782 83.782 200.145 130.327 321.164 130.327 107.055 0 209.455-37.236 293.236-107.055l200.145 200.145c9.309 9.309 18.618 9.309 27.927 9.309s18.618-4.655 27.927-9.309c9.309-13.964 9.309-41.891-4.655-55.855zM726.109 726.109c-69.818 69.818-167.564 111.709-265.309 111.709-102.4 0-195.491-37.236-265.309-111.709-69.818-69.818-111.709-167.564-111.709-265.309 0-102.4 37.236-195.491 111.709-265.309 37.236-37.236 74.473-60.509 121.018-79.127s93.091-27.927 144.291-27.927 97.745 4.655 144.291 27.927c46.545 18.618 88.436 46.545 121.018 79.127 37.236 37.236 60.509 74.473 79.127 121.018s27.927 93.091 27.927 144.291-9.309 97.745-27.927 144.291c-18.618 46.545-46.545 83.782-79.127 121.018z"></path>
</svg>
