<!-- Generated by IcoMoon.io -->
<svg version="1.1" xmlns="http://www.w3.org/2000/svg" width="1024" height="1024" viewBox="0 0 1024 1024">
<title></title>
<g id="icomoon-ignore">
</g>
<path fill="#000" d="M439.868 96.001c-9.233-0.006-17.278-0.011-24.873 1.202-30.007 4.791-55.974 23.508-70.009 50.46-3.552 6.822-6.092 14.455-9.006 23.216l-4.762 14.288c-0.81 2.431-1.036 3.101-1.233 3.644-7.471 20.656-26.843 34.618-48.802 35.174-0.577 0.015-1.284 0.017-3.846 0.017h-128.003c-17.673 0-32 14.327-32 32s14.327 32 32 32h725.338c17.673 0 32-14.327 32-32s-14.327-32-32-32h-128c-2.564 0-3.268-0.003-3.849-0.017-21.956-0.557-41.327-14.52-48.802-35.175-0.192-0.539-0.422-1.224-1.229-3.643l-4.766-14.289c-2.914-8.761-5.453-16.393-9.003-23.215-14.037-26.952-40.004-45.668-70.012-50.46-7.595-1.213-15.637-1.208-24.87-1.202h-144.273zM384.348 224.002c2.198-4.31 4.145-8.789 5.821-13.421 0.509-1.407 1.008-2.904 1.649-4.827l4.258-12.775c3.89-11.67 4.786-14.050 5.674-15.756 4.678-8.984 13.334-15.223 23.337-16.82 1.9-0.303 4.439-0.4 16.74-0.4h140.352c12.301 0 14.844 0.097 16.742 0.4 10.001 1.597 18.658 7.836 23.339 16.82 0.887 1.706 1.783 4.086 5.67 15.756l4.258 12.768 1.651 4.836c1.677 4.631 3.622 9.11 5.82 13.42h-255.311z"></path>
<path fill="#000" d="M252.377 360.54c-1.175-17.634-16.424-30.976-34.058-29.801s-30.976 16.424-29.801 34.058l19.774 296.609c3.648 54.729 6.595 98.935 13.505 133.628 7.185 36.066 19.406 66.193 44.647 89.809 25.242 23.612 56.113 33.805 92.578 38.571 35.073 4.591 79.377 4.591 134.229 4.587h37.5c54.852 0.004 99.157 0.004 134.234-4.587 36.463-4.766 67.337-14.959 92.578-38.571 25.242-23.616 37.461-53.743 44.646-89.809 6.912-34.688 9.856-78.899 13.504-133.628l19.776-296.609c1.173-17.634-12.169-32.882-29.803-34.058s-32.883 12.166-34.057 29.801l-19.627 294.364c-3.831 57.506-6.562 97.519-12.561 127.629-5.82 29.201-13.939 44.659-25.604 55.573s-27.631 17.988-57.156 21.85c-30.438 3.981-70.545 4.045-128.179 4.045h-32.998c-57.634 0-97.743-0.064-128.181-4.045-29.525-3.861-45.489-10.935-57.155-21.85s-19.787-26.372-25.604-55.573c-5.997-30.11-8.729-70.123-12.563-127.629l-19.624-294.364z"></path>
<path fill="#000" d="M402.153 437.495c17.585-1.762 33.269 11.072 35.027 28.655l21.333 213.333c1.758 17.587-11.072 33.267-28.659 35.025-17.585 1.758-33.266-11.072-35.025-28.655l-21.333-213.333c-1.758-17.587 11.072-33.267 28.657-35.025z"></path>
<path fill="#000" d="M621.854 437.495c17.587 1.758 30.417 17.438 28.659 35.025l-21.333 213.333c-1.758 17.583-17.442 30.413-35.025 28.655-17.587-1.758-30.417-17.438-28.659-35.025l21.333-213.333c1.758-17.583 17.442-30.417 35.025-28.655z"></path>
</svg>
