<!-- Generated by IcoMoon.io -->
<svg version="1.1" xmlns="http://www.w3.org/2000/svg" width="1069" height="1024" viewBox="0 0 1069 1024">
<title></title>
<g id="icomoon-ignore">
</g>
<path fill="#000" d="M1050.713 592.139l-138.017-133.565c-13.357-13.357-35.617-13.357-53.426 0l-356.174 333.913c-4.452 4.452-8.904 13.357-8.904 22.261l-22.261 151.374c0 13.357 0 22.261 8.904 31.165s17.809 8.904 26.713 8.904h4.452l160.278-22.261c8.904 0 13.357-4.452 22.261-8.904l356.174-333.913c8.904-8.904 13.357-17.809 13.357-26.713 0-4.452-4.452-17.809-13.357-22.261zM650.017 917.148l-97.948 13.357 13.357-89.043 320.557-302.748 84.591 80.139-320.557 298.296z"></path>
<path fill="#000" d="M271.583 939.409h-227.061c-22.261 0-40.070-17.809-40.070-40.070v-106.852c0-62.33 17.809-120.209 48.974-173.635 35.617-48.974 80.139-93.496 133.565-124.661s115.757-48.974 178.087-53.426c62.33-4.452 124.661 8.904 182.539 35.617 17.809 8.904 26.713 31.165 17.809 48.974s-31.165 26.713-48.974 17.809c-44.522-22.261-97.948-31.165-146.922-31.165-48.974 8.904-102.4 22.261-142.47 48.974-44.522 26.713-80.139 62.33-102.4 102.4-26.713 40.070-40.070 89.043-40.070 133.565v66.783h186.991c22.261 0 40.070 17.809 40.070 40.070s-22.261 35.617-40.070 35.617z"></path>
<path fill="#000" d="M382.887 13.357c-115.757 0-204.8 84.591-204.8 195.896s89.043 200.348 204.8 200.348c115.757 0 209.252-89.043 209.252-195.896 0-115.757-93.496-200.348-209.252-200.348zM382.887 333.913c-71.235 0-133.565-53.426-133.565-120.209 4.452-71.235 62.33-124.661 133.565-124.661s133.565 53.426 133.565 120.209c0 66.783-62.33 124.661-133.565 124.661z"></path>
</svg>
