<!-- Generated by IcoMoon.io -->
<svg version="1.1" xmlns="http://www.w3.org/2000/svg" width="1024" height="1024" viewBox="0 0 1024 1024">
<title></title>
<g id="icomoon-ignore">
</g>
<path fill="#000" d="M716.8 189.44h-440.32c-20.48 0-30.72 10.24-30.72 30.72 0 15.36 15.36 30.72 30.72 30.72h440.32c15.36 0 30.72-15.36 30.72-30.72 0-20.48-15.36-30.72-30.72-30.72z"></path>
<path fill="#000" d="M747.52 394.24c0-15.36-15.36-30.72-30.72-30.72h-440.32c-20.48 0-30.72 15.36-30.72 30.72s10.24 30.72 30.72 30.72h440.32c15.36 0 30.72-15.36 30.72-30.72z"></path>
<path fill="#000" d="M276.48 537.6c-15.36 0-30.72 15.36-30.72 30.72s15.36 30.72 30.72 30.72h220.16c15.36 0 30.72-15.36 30.72-30.72s-15.36-30.72-30.72-30.72h-220.16z"></path>
<path fill="#000" d="M353.28 962.56h-189.44c-25.6 0-46.080-20.48-46.080-46.080v-808.96c0-25.6 20.48-46.080 46.080-46.080h660.48c25.6 0 46.080 20.48 46.080 46.080v291.84c0 15.36 15.36 30.72 30.72 30.72s30.72-15.36 30.72-30.72v-291.84c0-56.32-46.080-107.52-107.52-107.52h-660.48c-56.32 0-107.52 51.2-107.52 107.52v803.84c0 61.44 51.2 112.64 107.52 112.64h189.44c15.36 0 30.72-15.36 30.72-30.72s-15.36-30.72-30.72-30.72z"></path>
<path fill="#000" d="M931.84 542.72c-46.080-46.080-117.76-46.080-158.72 0l-281.6 286.72c-10.24 10.24-15.36 20.48-15.36 30.72l-15.36 92.16c-5.12 20.48 5.12 40.96 15.36 51.2 15.36 15.36 30.72 20.48 46.080 20.48 5.12 0 5.12 0 10.24 0l92.16-15.36c10.24 0 25.6-10.24 30.72-15.36l281.6-286.72c40.96-46.080 40.96-117.76-5.12-163.84zM609.28 947.2l-92.16 15.36 20.48-92.16 199.68-204.8 76.8 76.8-204.8 204.8zM890.88 660.48l-35.84 35.84-76.8-76.8 35.84-35.84c10.24-10.24 25.6-15.36 35.84-15.36 15.36 0 25.6 5.12 35.84 15.36 25.6 25.6 25.6 56.32 5.12 76.8z"></path>
</svg>
