<!-- Generated by IcoMoon.io -->
<svg version="1.1" xmlns="http://www.w3.org/2000/svg" width="1024" height="1024" viewBox="0 0 1024 1024">
<title></title>
<g id="icomoon-ignore">
</g>
<path d="M243.2 968.533c-89.6-8.533-110.933-81.067-123.733-149.333l-55.467-418.133h-25.6c-21.333 0-38.4-17.067-38.4-42.667 0-21.333 12.8-38.4 38.4-38.4h268.8l132.267-247.467c4.267-12.8 12.8-21.333 29.867-21.333s25.6 8.533 34.133 17.067v0 0c4.267 12.8 4.267 25.6 0 38.4l-110.933 217.6h234.667l-110.933-209.067c-4.267-17.067-4.267-25.6 0-38.4s21.333-21.333 38.4-21.333c12.8 0 29.867 8.533 34.133 21.333l128 238.933 268.8 4.267c25.6 4.267 38.4 21.333 38.4 38.4 0 21.333-17.067 38.4-38.4 38.4h-21.333l-59.733 426.667c-12.8 85.333-51.2 132.267-119.467 140.8h-512l-12.8 4.267h-17.067zM733.867 887.467v-59.733c-4.267 0-4.267 0-8.533 0s-8.533-4.267-17.067-4.267c-17.067-4.267-25.6-12.8-29.867-17.067v0-4.267c-4.267-17.067-4.267-29.867 4.267-42.667 0-4.267 4.267-8.533 8.533-12.8 0-4.267 4.267-4.267 4.267-8.533l-55.467-59.733c-4.267 4.267-12.8 8.533-12.8 8.533v0 0c-8.533 4.267-17.067 8.533-25.6 8.533-4.267 0-12.8 0-17.067-4.267-17.067-8.533-25.6-21.333-25.6-38.4 0 0 0 0 0-4.267s-4.267-8.533-4.267-12.8c0 0 0 0 0-4.267h-72.533c0 4.267-4.267 4.267-4.267 8.533s0 4.267 0 4.267c-4.267 21.333-12.8 34.133-25.6 38.4-8.533 4.267-12.8 4.267-17.067 4.267-8.533 0-21.333-4.267-25.6-8.533l-12.8-8.533-12.8 12.8-4.267-4.267-38.4 34.133-17.067 17.067c4.267 8.533 8.533 12.8 12.8 21.333 12.8 12.8 8.533 29.867 4.267 42.667 0 4.267 0 8.533-4.267 12.8-4.267 8.533-17.067 17.067-29.867 21.333-4.267 0-8.533 4.267-12.8 4.267s-8.533 0-8.533 4.267v0 59.733h68.267c0-8.533 0-17.067 0-25.6 0-42.667 17.067-81.067 46.933-110.933s68.267-42.667 106.667-42.667c42.667 0 81.067 17.067 110.933 46.933 29.867 34.133 42.667 72.533 42.667 110.933 0 8.533 0 12.8 0 21.333h72.533zM507.733 785.067c-12.8 0-34.133 4.267-51.2 21.333s-21.333 34.133-21.333 55.467c0 8.533 4.267 17.067 4.267 25.6l145.067-4.267c4.267-8.533 4.267-17.067 4.267-21.333 0-21.333-8.533-38.4-21.333-55.467-12.8-8.533-29.867-21.333-59.733-21.333zM768 763.733c29.867 8.533 42.667 34.133 42.667 64v34.133c4.267-8.533 4.267-21.333 4.267-29.867l59.733-426.667h-123.733l8.533 12.8c0 0 17.067 4.267 17.067 4.267 21.333 0 34.133 21.333 34.133 38.4 0 21.333-17.067 38.4-38.4 38.4h-85.333c-21.333 0-38.4-12.8-38.4-38.4 0-12.8 8.533-29.867 25.6-38.4l-8.533-17.067h-311.467l-8.533 12.8c8.533 4.267 17.067 8.533 17.067 12.8 4.267 8.533 4.267 17.067 4.267 25.6 0 12.8-17.067 34.133-38.4 34.133h-85.333c-25.6 0-38.4-21.333-38.4-38.4s12.8-38.4 38.4-38.4h12.8l8.533-17.067h-123.733l59.733 413.867c4.267 17.067 4.267 34.133 8.533 46.933v-34.133c0-29.867 12.8-51.2 42.667-64-4.267-8.533-4.267-21.333-4.267-25.6 0-17.067 8.533-34.133 21.333-46.933 12.8-17.067 25.6-29.867 42.667-42.667 8.533-4.267 12.8-12.8 17.067-17.067 17.067-12.8 29.867-21.333 51.2-21.333 8.533 0 17.067 4.267 25.6 4.267 8.533-17.067 21.333-29.867 34.133-38.4l12.8-4.267h128l4.267 4.267c8.533 4.267 25.6 12.8 34.133 34.133 12.8-4.267 21.333-4.267 25.6-4.267 21.333 0 34.133 12.8 46.933 21.333l64 64c21.333 21.333 25.6 46.933 12.8 76.8z"></path>
</svg>
