<!-- Generated by IcoMoon.io -->
<svg version="1.1" xmlns="http://www.w3.org/2000/svg" width="1024" height="1024" viewBox="0 0 1024 1024">
<title></title>
<g id="icomoon-ignore">
</g>
<path d="M512 1024c-34.133 0-64-4.267-98.133-8.533-98.133-17.067-192-64-264.533-140.8-72.533-72.533-123.733-162.133-140.8-260.267-17.067-106.667-8.533-209.067 29.867-298.667 34.133-89.6 102.4-170.667 187.733-230.4 89.6-55.467 187.733-85.333 285.867-85.333 140.8 0 268.8 51.2 362.667 149.333 98.133 98.133 153.6 230.4 149.333 362.667 0 98.133-29.867 196.267-85.333 281.6-51.2 81.067-132.267 145.067-230.4 187.733-59.733 29.867-128 42.667-196.267 42.667v0zM516.267 98.133c-29.867 0-55.467 4.267-85.333 8.533-81.067 17.067-157.867 55.467-213.333 115.2-55.467 55.467-93.867 132.267-115.2 213.333-12.8 76.8-4.267 162.133 25.6 238.933 29.867 81.067 85.333 145.067 153.6 187.733 72.533 46.933 153.6 68.267 230.4 68.267 42.667 0 102.4-4.267 157.867-29.867 51.2-21.333 93.867-51.2 136.533-89.6 42.667-42.667 72.533-85.333 89.6-136.533 25.6-55.467 34.133-106.667 34.133-162.133 0-81.067-25.6-157.867-68.267-230.4-46.933-68.267-115.2-123.733-187.733-153.6-51.2-21.333-102.4-29.867-157.867-29.867zM226.133 541.867c-4.267-12.8-12.8-21.333-12.8-34.133 0-8.533 4.267-25.6 17.067-34.133 8.533-8.533 17.067-12.8 29.867-12.8 8.533 0 25.6 4.267 34.133 8.533l149.333 145.067 281.6-281.6c12.8-12.8 21.333-12.8 34.133-12.8 21.333 0 29.867 8.533 34.133 17.067s4.267 12.8 4.267 17.067c4.267 8.533 4.267 12.8 4.267 21.333s-4.267 25.6-12.8 29.867l-349.867 349.867-213.333-213.333z"></path>
</svg>
