<!-- Generated by IcoMoon.io -->
<svg version="1.1" xmlns="http://www.w3.org/2000/svg" width="1024" height="1024" viewBox="0 0 1024 1024">
<title></title>
<g id="icomoon-ignore">
</g>
<path fill="#000" d="M349.867 874.667c-4.267 0-12.8 0-17.067-4.267s-8.533-4.267-12.8-8.533l-290.133-294.4c-4.267-4.267-4.267-8.533-8.533-17.067-8.533-4.267-8.533-12.8-8.533-17.067s0-12.8 4.267-17.067c4.267-4.267 4.267-8.533 8.533-17.067 4.267-4.267 8.533-4.267 12.8-8.533s8.533-4.267 17.067-4.267 12.8 0 17.067 4.267 8.533 4.267 17.067 8.533l251.733 268.8 588.8-601.6c4.267-4.267 8.533-4.267 12.8-8.533 12.8-4.267 17.067-4.267 25.6-4.267s12.8 0 17.067 4.267c4.267 4.267 8.533 4.267 12.8 8.533s8.533 8.533 12.8 17.067c4.267 8.533 4.267 12.8 4.267 17.067s0 12.8-4.267 17.067c-4.267 4.267-4.267 8.533-8.533 12.8l-618.667 640c-4.267 4.267-8.533 4.267-12.8 8.533-8.533-4.267-17.067-4.267-21.333-4.267z"></path>
</svg>
