<!-- Generated by IcoMoon.io -->
<svg version="1.1" xmlns="http://www.w3.org/2000/svg" width="904" height="1024" viewBox="0 0 904 1024">
<title></title>
<g id="icomoon-ignore">
</g>
<path fill="#000" d="M590.306 192.753h-277.082c-12.047 0-18.071 0-24.094 6.024s-12.047 18.071-12.047 30.118 6.024 18.071 12.047 24.094c6.024 6.024 12.047 6.024 24.094 6.024h277.082c12.047 0 18.071-6.024 24.094-12.047s12.047-18.071 12.047-24.094-6.024-18.071-12.047-24.094c-6.024-6.024-12.047-6.024-24.094-6.024z"></path>
<path fill="#000" d="M897.506 228.894c-6.024-60.235-24.094-114.447-60.235-150.588-36.141-42.165-84.329-54.212-144.565-66.259-66.259-12.047-144.565-12.047-240.941-12.047v0c-96.376 0-174.682 0-234.918 6.024s-108.424 24.094-144.565 66.259c-36.141 42.165-54.212 90.353-60.235 150.588-12.047 66.259-12.047 144.565-12.047 240.941v240.941c0 72.282 0 126.494 6.024 168.659s12.047 78.306 42.165 108.424c18.071 24.094 48.188 36.141 72.282 42.165 36.141 6.024 72.282-12.047 102.4-36.141 36.141-24.094 72.282-60.235 126.494-108.424v0c24.094-24.094 42.165-36.141 54.212-48.188s18.071-12.047 30.118-12.047c6.024 0 18.071 0 24.094 0s12.047 6.024 30.118 12.047c12.047 12.047 30.118 24.094 54.212 48.188v0c54.212 48.188 90.353 84.329 126.494 108.424s66.259 42.165 102.4 36.141c30.118-6.024 54.212-18.071 78.306-36.141 30.118-24.094 36.141-66.259 42.165-108.424 12.047-42.165 12.047-96.376 12.047-168.659v-240.941c0-102.4 0-180.706-6.024-240.941zM831.247 704.753c0 72.282 0 126.494-6.024 168.659s-12.047 54.212-18.071 60.235c-12.047 12.047-24.094 18.071-36.141 18.071s-24.094 0-54.212-24.094c-30.118-24.094-66.259-60.235-120.471-108.424v0c-24.094-18.071-42.165-36.141-60.235-48.188s-36.141-24.094-54.212-30.118c-18.071-6.024-36.141-6.024-54.212 0s-36.141 12.047-54.212 30.118c-18.071 12.047-36.141 30.118-60.235 48.188v0c-54.212 48.188-90.353 84.329-120.471 108.424s-48.188 24.094-54.212 24.094c-12.047 0-30.118-6.024-36.141-18.071-6.024-6.024-12.047-24.094-18.071-60.235s-6.024-90.353-6.024-168.659v-234.918c0-102.4 0-174.682 6.024-234.918 0-54.212 12.047-84.329 36.141-108.424s54.212-36.141 108.424-48.188c54.212-6.024 126.494-6.024 222.871-6.024s168.659 0 222.871 6.024c54.212 6.024 84.329 24.094 108.424 48.188s36.141 54.212 42.165 114.447c6.024 54.212 6.024 132.518 6.024 234.918v228.894z"></path>
</svg>
