<!-- Generated by IcoMoon.io -->
<svg version="1.1" xmlns="http://www.w3.org/2000/svg" width="1024" height="1024" viewBox="0 0 1024 1024">
<title></title>
<g id="icomoon-ignore">
</g>
<path fill="#000" d="M1009.371 168.229c0 0-7.314-7.314 0 0l-153.6-160.914c-14.629 0-21.943-7.314-29.257-7.314-14.629 0-21.943 7.314-29.257 14.629l-497.371 490.057c0 7.314-7.314 7.314-7.314 14.629l-51.2 204.8c0 7.314 0 14.629 0 21.943s7.314 14.629 7.314 14.629 14.629 7.314 14.629 7.314 14.629 0 21.943 0l204.8-51.2c7.314 0 14.629-7.314 14.629-14.629l497.371-482.743c7.314-7.314 7.314-14.629 14.629-21.943 0-14.629-7.314-21.943-7.314-29.257zM460.8 643.657l-124.343 36.571 29.257-131.657 453.486-453.486 95.086 95.086-453.486 453.486z"></path>
<path fill="#000" d="M914.286 797.257c14.629-124.343 21.943-248.686 14.629-373.029 0 0 0-7.314 0-7.314s0-7.314 7.314-7.314l51.2-51.2c0 0 0 0 7.314 0 0 0 7.314 0 7.314 0s0 0 7.314 0c0 0 0 0 0 7.314 7.314 146.286 7.314 299.886-14.629 446.171-14.629 109.714-102.4 190.171-204.8 204.8-182.857 21.943-373.029 21.943-563.2 0-109.714-14.629-197.486-95.086-204.8-204.8-21.943-190.171-21.943-380.343 0-570.514 7.314-117.029 95.086-197.486 197.486-212.114 146.286-14.629 285.257-14.629 431.543-7.314 0 0 7.314 0 7.314 0s0 0 0 7.314 0 7.314 0 7.314 0 7.314 0 7.314l-58.514 43.886c0 0-7.314 7.314-7.314 7.314s-7.314 0-7.314 0c-117.029-7.314-234.057 0-358.4 14.629-29.257 7.314-58.514 21.943-87.771 43.886-21.943 21.943-36.571 58.514-43.886 87.771-21.943 182.857-21.943 365.714 0 548.571 7.314 36.571 21.943 65.829 43.886 87.771s58.514 36.571 87.771 43.886c175.543 21.943 365.714 21.943 541.257 0 36.571-7.314 65.829-21.943 87.771-43.886 36.571-14.629 51.2-51.2 58.514-80.457z"></path>
</svg>
