<!-- Generated by IcoMoon.io -->
<svg version="1.1" xmlns="http://www.w3.org/2000/svg" width="1195" height="1024" viewBox="0 0 1195 1024">
<title></title>
<g id="icomoon-ignore">
</g>
<path d="M1194.667 332.8c0 375.467-558.933 674.133-576 686.933-4.267 4.267-12.8 4.267-17.067 4.267s-12.8 0-17.067-4.267c-25.6-12.8-584.533-315.733-584.533-686.933 0-89.6 38.4-174.933 98.133-234.667 59.733-64 145.067-98.133 234.667-98.133 110.933 0 209.067 46.933 268.8 128 59.733-76.8 157.867-128 268.8-128 85.333 0 170.667 34.133 234.667 98.133 59.733 59.733 89.6 140.8 89.6 234.667z"></path>
</svg>
