<!-- Generated by IcoMoon.io -->
<svg version="1.1" xmlns="http://www.w3.org/2000/svg" width="1195" height="1024" viewBox="0 0 1195 1024">
<title></title>
<g id="icomoon-ignore">
</g>
<path d="M597.333 1024c-34.133 0-68.267-12.8-102.4-29.867-29.867-12.8-59.733-38.4-89.6-59.733-8.533-4.267-17.067-12.8-25.6-17.067s-12.8-12.8-21.333-17.067c-89.6-59.733-157.867-123.733-204.8-183.467-93.867-110.933-136.533-221.867-136.533-349.867 0-145.067 76.8-273.067 200.533-332.8 42.667-25.6 85.333-34.133 128-34.133 85.333 0 170.667 38.4 243.2 110.933 76.8-72.533 162.133-110.933 247.467-110.933 42.667 0 85.333 8.533 128 29.867 115.2 55.467 192 179.2 213.333 332.8 0 128-42.667 238.933-136.533 349.867-51.2 55.467-115.2 106.667-166.4 153.6l-42.667 29.867c-17.067 12.8-34.133 25.6-46.933 38.4-12.8 8.533-29.867 21.333-42.667 29.867-12.8 12.8-29.867 21.333-42.667 29.867-34.133 17.067-68.267 29.867-102.4 29.867zM354.133 85.333c-34.133 0-68.267 8.533-98.133 25.6-89.6 38.4-149.333 145.067-149.333 256s38.4 204.8 115.2 294.4c42.667 51.2 98.133 93.867 149.333 140.8l38.4 29.867c8.533 4.267 17.067 12.8 21.333 17.067 8.533 4.267 12.8 12.8 21.333 17.067 12.8 8.533 25.6 17.067 38.4 29.867 12.8 8.533 25.6 21.333 38.4 25.6 25.6 12.8 42.667 17.067 59.733 17.067s34.133-4.267 59.733-17.067c21.333-12.8 46.933-29.867 76.8-55.467 8.533-4.267 17.067-12.8 25.6-17.067s12.8-12.8 21.333-17.067c76.8-59.733 136.533-110.933 187.733-170.667 76.8-89.6 115.2-187.733 115.2-298.667s-59.733-209.067-153.6-256c-29.867-17.067-59.733-21.333-93.867-21.333-51.2 0-128 17.067-209.067 106.667 0 4.267-4.267 12.8-12.8 12.8-4.267 4.267-12.8 4.267-17.067 4.267s-4.267 0-8.533-4.267c-4.267 0-4.267-4.267-8.533-4.267l-12.8-12.8c-64-64-136.533-102.4-204.8-102.4z"></path>
</svg>
