<!-- Generated by IcoMoon.io -->
<svg version="1.1" xmlns="http://www.w3.org/2000/svg" width="1138" height="1024" viewBox="0 0 1138 1024">
<title></title>
<g id="icomoon-ignore">
</g>
<path fill="#000" d="M268.934 15.36l-124.121 122.88-62.061-61.44c-15.515-15.36-46.545-15.36-62.060 0s-15.515 46.080 0 61.44l93.091 92.16c10.344 10.24 20.687 10.24 31.030 10.24s20.687-5.12 31.031-10.24l155.151-153.6c15.515-15.36 15.515-46.080 0-61.44-15.515-20.48-41.374-20.48-62.061 0zM268.934 409.742l-124.121 122.88-62.061-61.44c-15.515-15.36-46.545-15.36-62.060 0s-15.515 46.080 0 61.44l93.091 92.16c10.344 10.24 20.687 10.24 31.030 10.24s20.687-5.12 31.031-10.24l155.151-153.6c15.515-15.36 15.515-46.080 0-61.44s-41.374-15.36-62.061 0zM144.813 873.956l124.121-122.88c20.687-15.36 46.545-15.36 62.061 0s15.515 46.080 0 61.44l-155.151 153.6c-10.344 5.12-20.687 10.24-31.031 10.24s-20.687 0-31.030-10.24l-93.091-92.16c-15.515-15.36-15.515-46.080 0-61.44s46.546-15.36 62.060 0l62.061 61.44zM522.346 796.444h563.72c25.856 0 41.37 24.889 41.37 49.778s-15.514 49.778-41.37 49.778h-563.72c-20.687 0-41.374-24.889-41.374-49.778s15.515-49.778 41.374-49.778zM522.346 455.111h563.72c25.856 0 41.37 24.889 41.37 49.778s-15.514 49.778-41.37 49.778h-563.72c-20.687 0-41.374-24.889-41.374-49.778s15.515-49.778 41.374-49.778zM1086.066 156.444h-563.72c-25.858 0-41.374-29.281-41.374-52.706s15.515-46.85 41.374-46.85h563.72c25.856 0 41.37 29.281 41.37 52.706s-15.514 46.85-41.37 46.85z"></path>
</svg>
