<!-- Generated by IcoMoon.io -->
<svg version="1.1" xmlns="http://www.w3.org/2000/svg" width="1138" height="1024" viewBox="0 0 1138 1024">
<title></title>
<g id="icomoon-ignore">
</g>
<path fill="#000" d="M216.719 134.734c0 59.53-48.514 107.79-108.36 107.79s-108.36-48.259-108.36-107.79c0-59.53 48.514-107.789 108.36-107.789s108.36 48.259 108.36 107.789zM216.719 511.998c0 59.531-48.514 107.79-108.36 107.79s-108.36-48.259-108.36-107.79c0-59.53 48.514-107.79 108.36-107.79s108.36 48.259 108.36 107.79zM108.36 997.052c59.845 0 108.36-48.259 108.36-107.787 0-59.534-48.514-107.793-108.36-107.793s-108.36 48.259-108.36 107.793c0 59.529 48.514 107.787 108.36 107.787zM1083.602 188.623h-704.339c-32.508 0-54.18-21.558-54.18-53.895s21.672-53.895 54.18-53.895h704.339c32.506 0 54.181 21.558 54.181 53.895s-21.675 53.895-54.181 53.895zM1083.602 458.097h-704.339c-32.508 0-54.18 21.558-54.18 53.895s21.672 53.895 54.18 53.895h704.339c32.506 0 54.181-21.558 54.181-53.895s-21.675-53.895-54.181-53.895zM379.263 835.362h704.339c32.506 0 54.181 21.555 54.181 53.897 0 32.336-21.675 53.891-54.181 53.891h-704.339c-32.508 0-54.18-21.555-54.18-53.891 0-32.341 21.672-53.897 54.18-53.897z"></path>
</svg>
