<!-- Generated by IcoMoon.io -->
<svg version="1.1" xmlns="http://www.w3.org/2000/svg" width="1365" height="1024" viewBox="0 0 1365 1024">
<title></title>
<g id="icomoon-ignore">
</g>
<path fill="#000" d="M1271.467 93.867c-25.6-25.6-68.267-42.667-110.933-42.667h-597.333c-42.667 0-76.8 17.067-110.933 42.667-8.533 17.067-25.6 25.6-25.6 42.667-34.133 0-68.267 8.533-102.4 25.6-42.667 17.067-68.267 42.667-93.867 68.267l-170.667 187.733c-8.533 8.533-8.533 34.133 0 42.667 17.067 17.067 34.133 8.533 51.2 0l170.667-187.733c17.067-17.067 42.667-34.133 68.267-51.2 17.067-8.533 42.667-17.067 59.733-17.067v349.867c-8.533 8.533-17.067 17.067-25.6 17.067 0 8.533-8.533 8.533-8.533 8.533s0 0 0 0 0 0 0 0c-25.6 17.067-34.133 34.133-17.067 51.2 8.533 17.067 34.133 17.067 42.667 8.533 0 0 0 0 0 0s0 0 0 0 8.533-8.533 17.067-8.533 34.133-17.067 59.733-34.133 102.4-68.267 170.667-102.4c34.133-25.6 76.8-25.6 102.4-8.533 0 0 0 0 0 0s0 0 0 0v0c8.533 8.533 17.067 17.067 25.6 25.6v0c17.067 17.067 17.067 42.667 17.067 59.733 0 25.6-17.067 51.2-51.2 76.8-25.6 25.6-59.733 51.2-76.8 59.733-8.533 8.533-17.067 17.067-25.6 17.067 0 0-8.533 0-8.533 0s0 0 0 0 0 0 0 0 0 0 0 0l-230.4 170.667h-315.733c-17.067 0-34.133 17.067-34.133 34.133s17.067 34.133 34.133 34.133h324.267c8.533 0 17.067 0 17.067-8.533l238.933-179.2c0 0 0 0 0 0s0 0 0 0v0c0 0 0 0 8.533 0s25.6 0 34.133-8.533c17.067-17.067 42.667-34.133 76.8-59.733h375.467c42.667 0 76.8-17.067 110.933-42.667 25.6-25.6 42.667-68.267 42.667-110.933v-349.867c0-42.667-17.067-76.8-42.667-110.933zM793.6 435.2c-8.533-17.067-17.067-34.133-17.067-51.2 0-25.6 8.533-42.667 25.6-59.733s34.133-25.6 59.733-25.6c25.6 0 42.667 8.533 59.733 25.6s25.6 34.133 25.6 59.733-8.533 42.667-25.6 51.2c-17.067 17.067-34.133 25.6-59.733 25.6-17.067 0-25.6 0-42.667-8.533-8.533-8.533-17.067-17.067-25.6-17.067zM1245.867 554.667c0 25.6-8.533 42.667-25.6 59.733s-34.133 25.6-59.733 25.6h-315.733c8.533-17.067 17.067-34.133 17.067-59.733 0-17.067 0-34.133 0-51.2 42.667 0 76.8-17.067 102.4-42.667s42.667-68.267 42.667-110.933c0-42.667-17.067-76.8-42.667-110.933-25.6-25.6-68.267-42.667-110.933-42.667s-76.8 17.067-110.933 42.667c-17.067 34.133-34.133 76.8-34.133 119.467 0 8.533 0 17.067 0 25.6-34.133 0-68.267 8.533-110.933 34.133-34.133 25.6-85.333 51.2-119.467 76.8v-315.733c0-25.6 8.533-42.667 25.6-59.733s34.133-25.6 59.733-25.6h597.333c25.6 0 42.667 8.533 59.733 25.6s25.6 34.133 25.6 59.733v349.867z"></path>
<path fill="#000" d="M1152 401.067v0c-17.067 17.067-34.133 17.067-51.2 0s-17.067-34.133 0-51.2c8.533-17.067 34.133-17.067 51.2 0s17.067 42.667 0 51.2z"></path>
<path fill="#000" d="M614.4 401.067v0c-17.067 17.067-34.133 17.067-51.2 0s-17.067-34.133 0-51.2c17.067-8.533 42.667-8.533 51.2 8.533 17.067 8.533 17.067 34.133 0 42.667z"></path>
</svg>
