<!-- Generated by IcoMoon.io -->
<svg version="1.1" xmlns="http://www.w3.org/2000/svg" width="896" height="1024" viewBox="0 0 896 1024">
<title></title>
<g id="icomoon-ignore">
</g>
<path d="M708.267 1024c-17.067 0-34.133-4.267-51.2-8.533-38.4-8.533-76.8-38.4-102.4-76.8-21.333-34.133-29.867-76.8-25.6-115.2l-238.933-162.133c-25.6 17.067-55.467 25.6-85.333 29.867 0 0 0 0 0 0-25.6 0-64-4.267-98.133-17.067-34.133-21.333-59.733-42.667-76.8-68.267s-25.6-59.733-25.6-93.867c0-34.133 8.533-68.267 25.6-93.867 17.067-29.867 42.667-51.2 76.8-68.267 21.333-4.267 51.2-17.067 81.067-17.067 4.267 0 12.8 0 17.067 0 29.867 4.267 59.733 12.8 76.8 29.867l238.933-162.133c-4.267-17.067-4.267-42.667 4.267-68.267 4.267-21.333 17.067-51.2 34.133-68.267 17.067-21.333 38.4-38.4 64-46.933 17.067-12.8 42.667-17.067 76.8-17.067 38.4 0 68.267 12.8 89.6 21.333 25.6 12.8 46.933 34.133 64 64 17.067 25.6 25.6 55.467 25.6 85.333 4.267 25.6 0 55.467-17.067 89.6-12.8 29.867-34.133 51.2-59.733 68.267-17.067 17.067-46.933 25.6-85.333 29.867-8.533 0-17.067 0-21.333 0-25.6 0-46.933-4.267-68.267-17.067-21.333-8.533-42.667-21.333-64-42.667l-213.333 149.333c8.533 17.067 12.8 42.667 12.8 68.267s-8.533 46.933-12.8 64l213.333 149.333c25.6-29.867 59.733-46.933 102.4-55.467 12.8-4.267 21.333-4.267 34.133-4.267 34.133 0 64 8.533 93.867 25.6 38.4 25.6 68.267 59.733 81.067 98.133 12.8 42.667 12.8 89.6-8.533 128-17.067 38.4-46.933 72.533-89.6 89.6-17.067 8.533-42.667 12.8-68.267 12.8v0zM708.267 768c-21.333 0-42.667 8.533-55.467 21.333s-21.333 34.133-21.333 51.2c0 21.333 8.533 38.4 21.333 51.2 17.067 12.8 34.133 21.333 55.467 21.333s42.667-8.533 55.467-21.333c12.8-12.8 25.6-38.4 25.6-51.2 0-17.067-8.533-38.4-25.6-51.2-12.8-12.8-34.133-21.333-55.467-21.333zM187.733 439.467c-21.333 0-42.667 8.533-55.467 21.333-17.067 12.8-25.6 34.133-25.6 51.2s8.533 38.4 25.6 51.2c12.8 12.8 34.133 21.333 55.467 21.333s42.667-8.533 55.467-21.333c12.8-8.533 21.333-29.867 21.333-51.2s-8.533-38.4-21.333-51.2c-17.067-17.067-34.133-21.333-55.467-21.333zM708.267 106.667c-21.333 0-42.667 8.533-55.467 21.333s-21.333 29.867-21.333 51.2c0 21.333 8.533 38.4 21.333 51.2 17.067 17.067 34.133 25.6 55.467 25.6s42.667-8.533 55.467-21.333c17.067-12.8 25.6-29.867 25.6-51.2 0-17.067-8.533-38.4-25.6-51.2-12.8-17.067-34.133-25.6-55.467-25.6z"></path>
</svg>
