<!-- Generated by IcoMoon.io -->
<svg version="1.1" xmlns="http://www.w3.org/2000/svg" width="1331" height="1024" viewBox="0 0 1331 1024">
<title></title>
<g id="icomoon-ignore">
</g>
<path fill="#000" d="M1310.72 389.12c-20.48-30.72-40.96-61.44-61.44-92.16v0c-112.64-143.36-307.2-296.96-583.68-296.96s-471.040 153.6-573.44 296.96v0c-30.72 30.72-51.2 61.44-71.68 92.16-10.24 30.72-20.48 71.68-20.48 122.88s10.24 92.16 20.48 122.88c20.48 30.72 40.96 61.44 61.44 92.16v0c112.64 143.36 307.2 296.96 583.68 296.96s471.040-153.6 573.44-296.96v0c20.48-30.72 51.2-61.44 61.44-92.16 20.48-30.72 30.72-71.68 30.72-122.88s-10.24-92.16-20.48-122.88zM1218.56 604.16c-10.24 20.48-30.72 40.96-51.2 71.68-102.4 122.88-266.24 256-501.76 256s-399.36-133.12-501.76-256c-30.72-30.72-40.96-51.2-51.2-71.68s-20.48-51.2-20.48-92.16 10.24-71.68 20.48-92.16c10.24-20.48 30.72-40.96 51.2-71.68 102.4-122.88 266.24-256 501.76-256s399.36 133.12 501.76 256c30.72 30.72 40.96 51.2 51.2 71.68s20.48 51.2 20.48 92.16-10.24 71.68-20.48 92.16zM665.6 296.96c-61.44 0-122.88 20.48-163.84 61.44s-71.68 92.16-71.68 153.6 20.48 112.64 71.68 153.6c40.96 40.96 102.4 61.44 163.84 61.44s122.88-20.48 163.84-61.44c40.96-40.96 71.68-102.4 71.68-153.6s-30.72-112.64-71.68-153.6c-40.96-40.96-102.4-61.44-163.84-61.44zM768 604.16c-20.48 20.48-61.44 40.96-102.4 40.96s-71.68-10.24-102.4-40.96c-20.48-20.48-40.96-61.44-40.96-92.16s10.24-71.68 40.96-92.16c20.48-20.48 61.44-40.96 102.4-40.96s71.68 10.24 102.4 40.96c20.48 20.48 40.96 61.44 40.96 92.16s-20.48 71.68-40.96 92.16z"></path>
</svg>
