<!-- Generated by IcoMoon.io -->
<svg version="1.1" xmlns="http://www.w3.org/2000/svg" width="1024" height="1024" viewBox="0 0 1024 1024">
<title></title>
<g id="icomoon-ignore">
</g>
<path fill="#000" d="M39.010 0c-9.752 0-19.505 4.876-29.257 9.752-4.876 9.752-9.752 19.505-9.752 29.257v292.571c0 9.752 4.876 19.505 9.752 24.381s14.629 9.752 24.381 9.752 19.505-4.876 24.381-9.752c4.876-4.876 9.752-14.629 9.752-24.381v-204.8l229.181 229.181c4.876 4.876 14.629 9.752 24.381 9.752s19.505-4.876 24.381-9.752 9.752-14.629 9.752-24.381 4.876-19.505 0-29.257l-229.181-229.181h204.8c9.752 0 19.505-4.876 24.381-9.752s9.752-14.629 9.752-24.381-4.876-19.505-9.752-29.257c-9.752-4.876-19.505-9.752-24.381-9.752h-292.571z"></path>
<path fill="#000" d="M39.010 1024c-9.752 0-19.505-4.876-24.381-9.752-9.752-9.752-14.629-19.505-14.629-29.257v-292.571c0-9.752 4.876-19.505 9.752-24.381s14.629-9.752 24.381-9.752 19.505 4.876 24.381 9.752c4.876 4.876 9.752 14.629 9.752 24.381v204.8l229.181-229.181c4.876-4.876 14.629-9.752 24.381-9.752s19.505 4.876 24.381 9.752c4.876 4.876 9.752 14.629 9.752 24.381s-4.876 19.505-9.752 24.381l-229.181 229.181h204.8c9.752 0 19.505 4.876 24.381 9.752s9.752 14.629 9.752 24.381-4.876 19.505-9.752 24.381c0 14.629-9.752 19.505-14.629 19.505h-292.571z"></path>
<path fill="#000" d="M1024 39.010c0-9.752-4.876-19.505-9.752-24.381-9.752-9.752-19.505-14.629-29.257-14.629h-292.571c-9.752 0-19.505 4.876-24.381 9.752s-9.752 14.629-9.752 24.381 4.876 19.505 9.752 24.381c4.876 4.876 14.629 9.752 24.381 9.752h204.8l-229.181 229.181c-4.876 4.876-9.752 14.629-9.752 24.381s4.876 19.505 9.752 24.381c4.876 4.876 14.629 9.752 24.381 9.752s19.505-4.876 24.381-9.752l229.181-229.181v204.8c0 9.752 4.876 19.505 9.752 24.381s14.629 9.752 24.381 9.752 19.505-4.876 24.381-9.752c14.629 0 19.505-9.752 19.505-14.629v-292.571z"></path>
<path fill="#000" d="M984.99 1024c9.752 0 19.505-4.876 24.381-9.752s9.752-14.629 9.752-24.381v-292.571c0-9.752-4.876-19.505-9.752-24.381s-14.629-9.752-24.381-9.752-19.505 4.876-24.381 9.752c-4.876 4.876-9.752 14.629-9.752 24.381v204.8l-229.181-229.181c-4.876-4.876-14.629-9.752-24.381-9.752s-19.505 4.876-24.381 9.752c-4.876 4.876-9.752 14.629-9.752 24.381s4.876 19.505 9.752 24.381l229.181 229.181h-204.8c-9.752 0-19.505 4.876-24.381 9.752s-9.752 14.629-9.752 24.381 4.876 19.505 9.752 24.381c4.876 4.876 14.629 9.752 24.381 9.752h287.695z"></path>
</svg>
